<svg width="30" height="30" viewBox="0 0 30 30" fill="none" xmlns="http://www.w3.org/2000/svg">
<path d="M27.2649 3.1781C25.6745 1.38058 23.5662 0.283484 21.3209 0.0849744C19.0756 -0.113535 16.8414 0.599635 15.0218 2.09566C13.1128 0.495063 10.7367 -0.230724 8.372 0.0644543C6.00729 0.359633 3.82963 1.65385 2.27753 3.68648C0.725436 5.71912 -0.0857969 8.33918 0.00719494 11.0191C0.100187 13.6989 1.0905 16.2396 2.7787 18.1293L12.0961 28.6493C12.8763 29.5149 13.9271 30 15.0218 30C16.1165 30 17.1673 29.5149 17.9476 28.6493L27.2649 18.1293C29.0167 16.1425 30 13.455 30 10.6537C30 7.85243 29.0167 5.16494 27.2649 3.1781ZM25.1494 15.7953L15.832 26.2984C15.726 26.419 15.5998 26.5148 15.4607 26.5802C15.3217 26.6456 15.1725 26.6793 15.0218 26.6793C14.8711 26.6793 14.722 26.6456 14.5829 26.5802C14.4438 26.5148 14.3176 26.419 14.2116 26.2984L4.89424 15.7446C3.71757 14.3887 3.05868 12.5674 3.05868 10.6706C3.05868 8.77387 3.71757 6.95253 4.89424 5.59668C6.09327 4.26221 7.71041 3.51394 9.39538 3.51394C11.0803 3.51394 12.6975 4.26221 13.8965 5.59668C14.036 5.7552 14.2019 5.88103 14.3848 5.96689C14.5676 6.05276 14.7637 6.09697 14.9618 6.09697C15.1599 6.09697 15.356 6.05276 15.5388 5.96689C15.7216 5.88103 15.8876 5.7552 16.0271 5.59668C17.2261 4.26221 18.8432 3.51394 20.5282 3.51394C22.2132 3.51394 23.8303 4.26221 25.0294 5.59668C26.2222 6.93476 26.9027 8.74623 26.9251 10.643C26.9476 12.5398 26.3101 14.3711 25.1494 15.7446V15.7953Z" fill="black"/>
</svg>
