<svg width="47" height="39" viewBox="0 0 47 39" fill="none" xmlns="http://www.w3.org/2000/svg">
<path d="M45.7592 0.729864C44.7759 -0.0143187 43.4245 -0.205819 42.2403 0.231166L2.14013 15.0066C0.376178 15.6693 -0.465161 17.5116 0.260885 19.1214C0.636407 19.954 1.3839 20.6001 2.31499 20.8972L10.9658 23.6421L15.654 37.7892C15.6634 37.818 15.6924 37.8355 15.7046 37.8632C15.753 37.976 15.8239 38.0799 15.9134 38.1694C15.9468 38.2054 15.9831 38.2392 16.0219 38.2704C16.1387 38.3589 16.2743 38.4244 16.4202 38.4625C16.4425 38.4685 16.4574 38.4866 16.4801 38.4913L16.4932 38.4908L16.4997 38.4933C16.5744 38.5085 16.6507 38.5159 16.727 38.5153C16.8269 38.512 16.9259 38.4963 17.021 38.4685C17.0394 38.4639 17.058 38.4651 17.0761 38.4597C17.2385 38.4074 17.3852 38.3215 17.5047 38.2086C17.5186 38.1958 17.5398 38.1936 17.5532 38.1801L24.2981 31.3879L34.1379 38.3417C34.7358 38.7684 35.4729 39.0001 36.2318 39C37.8732 38.9998 39.29 37.9504 39.6283 36.4846L46.9307 3.76594C47.1837 2.63415 46.7333 1.46719 45.7592 0.729864ZM18.1019 26.3251L16.5191 33.3453L13.2182 23.3815L29.5897 15.6009L18.4057 25.8084C18.2511 25.9497 18.1455 26.1293 18.1019 26.3251ZM37.4362 36.0736C37.3504 36.4497 37.0564 36.758 36.6603 36.8875C36.2732 37.0234 35.836 36.9628 35.5106 36.7279L24.849 29.1936C24.3875 28.8674 23.7286 28.9204 23.3366 29.3153L18.6463 34.0383L20.2264 27.0372L36.315 12.3515C36.7522 11.9532 36.7529 11.3069 36.3165 10.9079C35.9713 10.5921 35.4414 10.5176 35.0079 10.7238L11.8137 21.7474L3.04718 18.9663C2.56934 18.8228 2.24436 18.418 2.23849 17.9589C2.2154 17.4966 2.51525 17.0716 2.98598 16.8997L43.0796 2.12622C43.4984 1.96402 43.9817 2.03197 44.3276 2.30176C44.6718 2.55535 44.83 2.96441 44.7363 3.359L37.4362 36.0736Z" fill="black"/>
</svg>
